<?xml version="1.0" standalone="no"?>
<!DOCTYPE svg PUBLIC "-//W3C//DTD SVG 20010904//EN"
 "http://www.w3.org/TR/2001/REC-SVG-20010904/DTD/svg10.dtd">
<svg version="1.0" xmlns="http://www.w3.org/2000/svg"
 width="871.000000pt" height="624.000000pt" viewBox="0 0 871.000000 624.000000"
 preserveAspectRatio="xMidYMid meet">

<g transform="translate(0.000000,624.000000) scale(0.100000,-0.100000)"
fill="#000000" stroke="none">
<path d="M3829 5256 c-1151 -389 -1423 -485 -1457 -520 -13 -12 -28 -40 -34
-62 -15 -59 -22 -1353 -9 -1669 15 -354 42 -499 146 -770 171 -448 556 -917
1005 -1224 238 -164 580 -339 877 -450 l111 -42 144 56 c335 133 711 340 958
528 174 133 416 368 531 517 221 285 369 585 456 930 48 188 52 300 53 1283 0
890 1 865 -51 914 -30 27 -117 61 -539 208 -441 154 -1522 515 -1542 515 -8 0
-300 -96 -649 -214z m1212 -495 c708 -241 1004 -346 1043 -369 62 -36 61 -27
60 -762 0 -691 -2 -734 -45 -935 -114 -531 -519 -1033 -1112 -1380 -123 -71
-381 -196 -467 -226 l-65 -22 -70 28 c-98 39 -373 177 -475 238 -571 343 -951
814 -1079 1340 -48 194 -53 288 -49 992 2 530 5 645 17 668 25 49 98 78 776
309 242 82 544 185 670 228 127 43 233 79 236 79 4 1 256 -84 560 -188z"/>
<path d="M4235 4353 c-63 -14 -76 -26 -119 -112 -102 -202 -906 -1987 -906
-2010 0 -12 434 -16 476 -5 15 4 48 63 129 230 60 124 112 227 117 230 13 8
37 -10 234 -183 285 -250 315 -273 358 -273 42 0 102 28 132 62 42 47 189 264
530 783 676 1031 651 989 602 1034 -36 34 -56 35 -101 6 -23 -15 -310 -297
-637 -626 -436 -440 -601 -599 -617 -599 -22 0 -195 141 -254 206 -52 57 -52
59 3 168 28 55 95 197 150 316 54 118 102 218 106 222 5 5 65 -108 136 -249
l127 -256 170 169 c93 93 169 174 169 179 0 12 -144 324 -246 532 -76 156 -82
160 -218 174 -93 9 -305 10 -341 2z"/>
<path d="M5264 2982 c-67 -94 -244 -368 -244 -379 0 -9 26 -71 148 -345 l17
-38 237 0 c202 0 238 2 238 15 0 21 -332 781 -348 797 -4 3 -25 -19 -48 -50z"/>
</g>
</svg>
