<?xml version="1.0" standalone="no"?>
<!DOCTYPE svg PUBLIC "-//W3C//DTD SVG 20010904//EN"
 "http://www.w3.org/TR/2001/REC-SVG-20010904/DTD/svg10.dtd">
<svg version="1.0" xmlns="http://www.w3.org/2000/svg"
 width="1024.000000pt" height="1024.000000pt" viewBox="0 0 1024.000000 1024.000000"
 preserveAspectRatio="xMidYMid meet">

<g transform="translate(0.000000,1024.000000) scale(0.100000,-0.100000)"
fill="#000000" stroke="none">
<path d="M4331 8379 c-421 -143 -774 -267 -784 -277 -48 -43 -47 -29 -47 -739
0 -693 3 -757 45 -933 115 -483 480 -945 975 -1232 141 -82 352 -183 485 -233
l100 -37 50 17 c192 68 466 205 641 321 495 326 798 755 901 1271 15 77 17
173 20 793 3 688 3 706 -16 737 -11 18 -31 39 -44 47 -41 28 -1506 526 -1542
526 -11 -1 -364 -118 -784 -261z m1259 -288 c601 -206 719 -248 737 -262 42
-36 43 -46 43 -544 0 -268 -5 -518 -11 -573 -34 -313 -164 -582 -398 -825
-164 -170 -310 -281 -526 -400 -102 -56 -305 -147 -329 -147 -45 0 -343 147
-481 237 -454 297 -721 683 -775 1123 -13 109 -13 1012 0 1061 19 69 -40 45
990 394 151 52 277 94 280 94 3 1 215 -71 470 -158z"/>
<path d="M4927 7801 c-21 -4 -44 -14 -52 -22 -7 -8 -71 -140 -140 -294 -273
-602 -575 -1275 -575 -1280 0 -3 83 -5 184 -5 135 0 186 3 193 13 6 6 45 87
88 180 44 92 82 167 86 167 5 0 96 -78 203 -174 108 -95 206 -176 218 -178 43
-8 86 11 126 57 21 25 132 185 244 357 500 761 611 934 616 950 8 31 -25 68
-61 68 -29 0 -73 -42 -486 -460 -249 -254 -462 -465 -472 -471 -25 -13 -33 -8
-145 92 -91 81 -109 109 -85 134 8 9 103 208 187 394 l34 73 97 -196 98 -196
129 129 129 129 -88 189 c-150 320 -146 313 -179 330 -35 18 -282 28 -349 14z"/>
<path d="M5627 6656 l-108 -163 50 -115 c27 -63 56 -129 65 -147 l17 -31 180
0 c112 0 179 4 177 10 -14 40 -264 609 -268 609 -3 1 -54 -73 -113 -163z"/>
<path d="M2589 4372 c-117 -31 -193 -100 -224 -205 -30 -100 -11 -234 40 -295
34 -40 121 -84 255 -127 136 -45 183 -67 204 -97 20 -28 20 -71 1 -107 -42
-83 -264 -82 -434 2 -36 17 -70 34 -74 35 -4 2 -6 -49 -5 -113 l3 -117 47 -19
c141 -55 401 -65 519 -20 118 45 186 137 196 265 14 189 -67 280 -317 356
-123 38 -173 61 -194 92 -36 51 -7 126 60 154 69 29 207 10 329 -45 l65 -30 0
108 0 109 -49 21 c-119 51 -299 65 -422 33z"/>
<path d="M3532 4374 c-178 -48 -262 -181 -238 -378 10 -75 54 -140 124 -179
29 -16 111 -49 183 -73 71 -24 145 -52 163 -63 57 -36 72 -98 34 -146 -31 -40
-77 -55 -164 -55 -93 0 -175 20 -265 66 -38 19 -70 34 -71 34 -2 0 -3 -52 -3
-115 l0 -115 55 -21 c98 -37 205 -52 330 -46 130 5 202 27 273 81 89 68 129
215 93 340 -32 109 -111 166 -317 230 -141 44 -181 68 -194 120 -11 44 3 77
47 109 62 46 235 27 356 -37 l62 -34 0 112 0 112 -36 18 c-108 51 -319 71
-432 40z"/>
<path d="M1556 4338 c-8 -18 -79 -202 -159 -408 -80 -206 -168 -433 -196 -504
-28 -71 -51 -130 -51 -130 0 -1 57 0 127 1 l128 1 39 106 39 106 221 0 221 0
19 -52 c10 -29 27 -76 38 -105 l19 -52 130 -3 c83 -2 128 1 125 7 -2 6 -96
246 -209 535 l-205 525 -136 3 -137 3 -13 -33z m154 -248 c0 -8 98 -285 125
-352 7 -17 -4 -18 -135 -18 -131 0 -142 1 -135 18 4 9 35 95 69 189 53 151 76
199 76 163z"/>
<path d="M4230 4011 c0 -199 4 -382 10 -411 42 -220 221 -333 500 -317 190 11
321 90 386 232 39 85 44 141 44 506 l0 349 -125 0 -125 0 0 -347 c0 -212 -4
-363 -11 -386 -13 -49 -63 -105 -114 -128 -82 -38 -207 -17 -262 42 -51 56
-53 72 -53 459 l0 360 -125 0 -125 0 0 -359z"/>
<path d="M5390 3833 l0 -538 121 2 120 2 2 188 2 188 79 0 80 0 111 -185 111
-185 147 -5 c81 -3 147 -4 147 -3 0 1 -58 91 -128 200 l-128 198 40 18 c71 32
107 67 140 136 29 61 31 74 31 171 0 120 -17 168 -79 238 -82 91 -181 111
-538 112 l-258 0 0 -537z m552 314 c69 -29 96 -116 63 -202 -27 -72 -67 -87
-237 -93 l-136 -5 -1 152 c-1 83 1 157 5 163 10 16 260 4 306 -15z"/>
<path d="M6490 3833 l0 -538 117 2 118 2 3 535 2 536 -120 0 -120 0 0 -537z"/>
<path d="M7089 3830 l215 -540 132 0 133 0 19 53 c21 55 345 886 381 975 l21
53 -131 -3 -131 -3 -119 -330 c-66 -181 -131 -363 -145 -404 -17 -46 -30 -68
-34 -60 -4 8 -69 191 -145 407 l-139 392 -136 0 -136 0 215 -540z"/>
<path d="M8161 4028 c-98 -270 -244 -650 -277 -723 -3 -6 41 -9 123 -8 l128 2
40 105 40 106 216 0 216 0 39 -106 39 -106 128 -1 c123 -2 128 -1 123 18 -3
11 -95 252 -205 535 l-199 515 -144 3 -143 2 -124 -342z m339 -110 c36 -100
67 -185 68 -190 2 -4 -60 -8 -137 -8 l-140 0 36 98 c19 53 49 139 67 189 17
51 33 93 36 93 3 0 34 -82 70 -182z"/>
<path d="M3350 2740 c-14 -14 -20 -33 -20 -65 0 -38 -3 -45 -20 -45 -15 0 -20
-7 -20 -25 0 -18 5 -25 20 -25 19 0 20 -7 20 -110 l0 -110 30 0 30 0 0 113 0
114 30 -5 c28 -4 30 -2 30 27 0 28 -3 31 -31 31 -28 0 -30 2 -27 33 2 27 8 33
31 35 21 3 27 9 27 28 0 21 -4 24 -40 24 -27 0 -47 -7 -60 -20z"/>
<path d="M3485 2731 c-9 -28 5 -51 31 -51 30 0 51 35 33 56 -17 20 -56 18 -64
-5z"/>
<path d="M4827 2743 c-12 -11 -7 -50 7 -62 19 -16 56 2 56 27 0 32 -43 56 -63
35z"/>
<path d="M5720 2555 l0 -195 33 0 32 0 0 195 0 195 -32 0 -33 0 0 -195z"/>
<path d="M5850 2735 c-15 -19 -4 -52 21 -60 38 -12 65 35 37 63 -16 16 -43 15
-58 -3z"/>
<path d="M2400 2718 c-91 -62 -106 -225 -29 -313 74 -84 224 -66 265 31 19 45
19 44 -21 44 -24 0 -35 -5 -35 -14 0 -22 -49 -56 -82 -56 -77 0 -127 74 -113
165 10 67 49 108 104 108 44 0 91 -32 91 -61 0 -11 8 -13 32 -8 17 3 34 8 36
11 9 9 -36 71 -68 92 -46 32 -134 32 -180 1z"/>
<path d="M5275 2670 c-5 -30 -11 -40 -26 -40 -14 0 -19 -7 -19 -25 0 -18 5
-25 20 -25 19 0 20 -7 20 -89 0 -118 14 -136 103 -132 22 1 27 6 27 25 0 21
-6 25 -32 28 l-33 3 -3 83 -3 82 31 0 c25 0 30 4 30 25 0 21 -5 25 -30 25 -28
0 -30 2 -30 40 0 36 -3 40 -24 40 -20 0 -25 -6 -31 -40z"/>
<path d="M6900 2670 c0 -33 -4 -40 -19 -40 -17 0 -31 -18 -31 -41 0 -5 11 -9
25 -9 25 0 25 0 25 -93 0 -117 14 -134 98 -129 32 3 32 52 -1 52 -38 0 -47 19
-47 97 l0 73 35 0 c31 0 35 3 35 25 0 22 -4 25 -35 25 -34 0 -35 1 -35 40 0
36 -2 40 -25 40 -22 0 -25 -4 -25 -40z"/>
<path d="M2764 2624 c-44 -21 -64 -62 -64 -129 0 -70 21 -112 65 -131 102 -42
185 17 185 134 0 108 -93 172 -186 126z m100 -55 c24 -19 27 -27 24 -77 -3
-46 -7 -58 -30 -75 -57 -43 -116 14 -103 99 10 70 58 93 109 53z"/>
<path d="M3103 2628 c-13 -6 -23 -15 -23 -20 0 -4 -4 -8 -10 -8 -5 0 -10 7
-10 15 0 9 -9 15 -25 15 l-25 0 0 -135 0 -135 29 0 29 0 4 96 c3 86 5 98 27
115 28 23 41 24 67 5 16 -12 20 -29 22 -115 l4 -101 29 0 29 0 0 95 c0 104
-15 156 -48 174 -26 14 -70 13 -99 -1z"/>
<path d="M3490 2500 l0 -140 30 0 30 0 0 140 0 140 -30 0 -30 0 0 -140z"/>
<path d="M3663 2626 c-17 -8 -36 -23 -42 -35 -16 -29 21 -38 64 -15 43 23 88
7 83 -29 -2 -18 -12 -23 -52 -29 -70 -10 -100 -35 -104 -86 -2 -31 2 -46 17
-61 27 -27 80 -27 115 0 21 17 26 18 26 5 0 -11 9 -16 31 -16 l31 0 -4 115
c-3 101 -5 117 -24 136 -28 27 -98 34 -141 15z m107 -164 c0 -31 -29 -62 -59
-62 -55 0 -64 50 -13 69 44 16 72 13 72 -7z"/>
<path d="M3977 2620 c-30 -24 -41 -25 -33 -5 4 11 -2 15 -24 15 l-30 0 0 -135
0 -135 30 0 30 0 0 80 c0 84 15 132 45 144 26 9 34 7 55 -14 17 -17 20 -33 20
-115 l0 -95 30 0 30 0 0 100 c0 107 -13 150 -49 170 -31 16 -76 12 -104 -10z"/>
<path d="M4478 2625 c-15 -8 -32 -24 -38 -35 -9 -17 -7 -20 15 -26 17 -4 32
-1 44 10 24 22 57 20 75 -5 22 -32 10 -46 -44 -52 -57 -7 -84 -22 -99 -54 -17
-37 -13 -62 14 -88 30 -31 82 -33 119 -4 21 17 26 18 26 5 0 -11 9 -16 28 -16
l27 0 -5 115 c-4 100 -8 117 -26 136 -28 28 -99 35 -136 14z m108 -172 c-9
-37 -34 -55 -71 -51 -24 2 -30 8 -30 28 0 28 34 50 79 50 26 0 28 -2 22 -27z"/>
<path d="M5060 2633 c-8 -3 -23 -12 -32 -21 -16 -14 -18 -13 -18 1 0 11 -8 17
-25 17 l-25 0 0 -135 0 -135 28 0 c26 0 28 2 24 35 -8 66 8 146 33 171 28 28
47 30 69 8 12 -12 16 -38 16 -115 l0 -99 35 0 35 0 0 73 c-1 105 -14 157 -45
184 -25 22 -62 28 -95 16z"/>
<path d="M5491 2623 c-86 -43 -92 -195 -10 -251 28 -19 43 -23 83 -19 41 4 55
11 80 38 l30 34 -29 5 c-21 4 -36 0 -49 -12 -27 -25 -63 -22 -91 7 -47 46 -36
55 71 55 l97 0 -6 46 c-10 89 -97 137 -176 97z m97 -49 c12 -8 22 -24 22 -35
0 -17 -7 -19 -65 -19 -72 0 -78 8 -40 45 28 29 51 31 83 9z"/>
<path d="M6044 2630 c-84 -34 -98 -204 -21 -250 38 -24 81 -25 120 -6 26 14
27 14 27 -13 0 -15 -8 -35 -18 -44 -23 -21 -80 -22 -102 -2 -18 16 -60 9 -60
-10 0 -20 48 -54 85 -61 47 -9 89 3 119 33 26 26 26 27 26 189 l0 164 -25 0
c-16 0 -25 -6 -25 -16 0 -13 -5 -12 -26 5 -28 22 -64 26 -100 11z m96 -58 c33
-27 39 -99 10 -134 -45 -58 -120 -22 -120 58 0 77 58 118 110 76z"/>
<path d="M6342 2620 c-86 -53 -81 -212 8 -257 52 -26 136 -7 160 36 14 27 13
28 -13 33 -14 3 -33 -3 -47 -14 -12 -10 -30 -18 -40 -18 -26 0 -70 38 -70 61
0 17 8 19 95 19 95 0 95 0 95 25 0 70 -61 135 -125 135 -16 0 -45 -9 -63 -20z
m108 -50 c38 -38 27 -50 -45 -50 -51 0 -65 3 -65 15 0 23 37 55 65 55 14 0 34
-9 45 -20z"/>
<path d="M6673 2628 c-13 -6 -23 -15 -23 -20 0 -4 -4 -8 -10 -8 -5 0 -10 7
-10 15 0 9 -9 15 -25 15 l-25 0 0 -135 0 -135 30 0 30 0 0 90 c0 83 2 93 25
115 28 28 43 31 70 11 16 -12 20 -30 23 -115 l4 -101 29 0 29 0 0 88 c0 113
-13 158 -50 177 -33 17 -65 18 -97 3z"/>
<path d="M7120 2622 c-89 -44 -94 -199 -8 -252 47 -30 123 -23 155 14 29 34
29 42 1 49 -13 4 -31 -1 -46 -14 -33 -26 -58 -24 -87 6 -47 46 -36 55 70 55
95 0 95 0 95 25 0 43 -27 94 -62 115 -41 25 -72 25 -118 2z m100 -52 c38 -38
27 -50 -45 -50 -51 0 -65 3 -65 15 0 23 37 55 65 55 14 0 34 -9 45 -20z"/>
<path d="M4180 2605 c0 -23 3 -24 65 -27 l65 -3 -70 -87 c-38 -48 -70 -96 -70
-108 0 -19 6 -20 105 -20 105 0 105 0 105 25 0 23 -3 24 -66 27 l-66 3 66 82
c43 53 66 91 66 107 l0 26 -100 0 c-100 0 -100 0 -100 -25z"/>
<path d="M4824 2608 c3 -13 5 -74 5 -135 l1 -113 28 0 27 0 -3 135 -3 135 -29
0 c-26 0 -29 -3 -26 -22z"/>
<path d="M5854 2614 c3 -9 6 -69 6 -135 l0 -119 28 0 27 0 -3 135 -3 135 -31
0 c-23 0 -29 -4 -24 -16z"/>
<path d="M4368 2055 c2 -41 2 -75 -1 -75 -2 0 -18 7 -36 16 -95 47 -180 -53
-151 -177 15 -63 47 -92 104 -93 30 -1 50 5 65 18 17 16 21 16 21 4 0 -9 11
-18 25 -20 l25 -5 0 203 0 204 -27 0 -28 0 3 -75z m-29 -112 c29 -24 37 -80
17 -126 -14 -34 -18 -37 -54 -37 -49 0 -64 17 -69 78 -8 81 52 129 106 85z"/>
<path d="M6580 2055 c0 -41 -2 -75 -4 -75 -2 0 -17 7 -32 15 -37 19 -58 19
-94 0 -46 -24 -63 -66 -58 -146 3 -55 8 -73 27 -93 32 -34 81 -43 122 -22 39
19 39 19 39 2 0 -10 9 -14 28 -12 l27 3 3 202 2 201 -30 0 -30 0 0 -75z m-30
-113 c44 -36 35 -143 -15 -162 -57 -22 -103 33 -92 108 11 63 63 90 107 54z"/>
<path d="M1868 2001 c-30 -15 -38 -16 -38 -5 0 9 -11 14 -27 14 l-28 0 3 -195
3 -195 30 0 31 0 -4 65 c-2 55 -1 64 12 58 35 -16 101 -15 126 2 70 45 71 204
2 249 -40 26 -71 28 -110 7z m87 -64 c23 -32 19 -113 -5 -137 -25 -25 -72 -26
-95 0 -21 23 -24 112 -4 136 30 37 79 37 104 1z"/>
<path d="M2120 1988 c-19 -13 -35 -28 -37 -34 -6 -19 37 -23 66 -7 33 20 77
11 84 -16 6 -26 -11 -41 -45 -41 -76 0 -126 -50 -113 -112 13 -56 88 -77 139
-37 21 17 26 18 26 5 0 -10 9 -16 25 -16 l25 0 0 111 c0 109 0 111 -29 140
-37 37 -93 39 -141 7z m114 -160 c-11 -40 -36 -59 -68 -56 -69 7 -30 78 42 78
30 0 33 -2 26 -22z"/>
<path d="M2360 1870 l0 -140 30 0 30 0 0 85 c0 78 2 88 25 110 13 14 33 25 43
25 15 0 18 6 14 30 -5 36 -32 40 -62 10 -11 -11 -22 -20 -25 -20 -3 0 -5 9 -5
20 0 15 -7 20 -25 20 l-25 0 0 -140z"/>
<path d="M2605 1995 c-17 -8 -36 -24 -42 -34 -10 -17 -9 -20 14 -26 16 -4 31
-1 42 10 34 30 91 13 91 -27 0 -17 -7 -20 -80 -32 -50 -9 -80 -41 -80 -87 0
-71 76 -104 134 -58 21 17 26 18 26 5 0 -11 9 -16 31 -16 l31 0 -3 115 c-4
101 -7 117 -25 136 -28 28 -99 35 -139 14z m105 -163 c0 -31 -29 -62 -59 -62
-55 0 -64 50 -13 69 44 16 72 13 72 -7z"/>
<path d="M2992 1993 c-43 -21 -62 -59 -62 -128 0 -95 44 -145 127 -145 45 0
77 20 98 60 15 29 14 30 -10 36 -20 5 -30 1 -46 -20 -56 -72 -141 12 -109 108
19 59 64 72 106 31 14 -14 36 -25 49 -25 24 0 25 1 12 33 -14 35 -65 67 -107
67 -14 0 -40 -8 -58 -17z"/>
<path d="M3272 1993 c-43 -21 -62 -59 -62 -128 0 -94 44 -145 125 -145 79 0
125 55 125 147 0 60 -28 109 -75 129 -44 18 -72 17 -113 -3z m102 -54 c53 -42
25 -169 -39 -169 -71 0 -101 114 -45 170 26 26 51 25 84 -1z"/>
<path d="M3520 1866 l0 -142 28 2 27 1 5 97 c5 102 12 116 58 116 19 0 22 5
22 36 0 34 -1 36 -27 30 -16 -4 -36 -16 -45 -28 -18 -20 -18 -20 -18 0 0 13
-8 21 -25 24 l-25 5 0 -141z"/>
<path d="M3790 1983 c-31 -25 -32 -26 -26 -5 7 19 4 22 -23 22 l-31 0 0 -133
c0 -74 2 -136 5 -139 3 -3 17 -3 30 0 24 4 25 7 25 86 0 96 14 126 61 126 28
0 30 2 27 32 -4 43 -26 46 -68 11z"/>
<path d="M3954 1995 c-43 -22 -68 -70 -68 -130 0 -92 49 -145 135 -145 34 0
47 6 78 37 l36 37 -30 6 c-21 3 -35 0 -47 -12 -10 -10 -29 -18 -43 -18 -29 0
-75 40 -75 65 0 14 13 16 96 13 l96 -3 -5 48 c-8 89 -96 141 -173 102z m93
-50 c11 -8 23 -24 26 -35 5 -19 1 -20 -64 -20 -76 0 -83 7 -44 45 28 29 51 31
82 10z"/>
<path d="M4555 1996 c-49 -22 -70 -61 -69 -133 1 -70 18 -104 66 -129 39 -20
110 -14 140 12 65 58 62 195 -6 239 -35 23 -95 28 -131 11z m100 -61 c19 -18
25 -35 25 -70 0 -35 -6 -52 -25 -70 -50 -51 -115 -12 -115 70 0 51 32 95 70
95 12 0 32 -11 45 -25z"/>
<path d="M4910 2003 c-8 -3 -25 -15 -37 -26 l-23 -20 0 21 c0 17 -6 22 -25 22
l-25 0 0 -138 0 -139 30 0 30 0 0 92 c0 99 12 125 58 125 18 0 22 6 22 35 0
35 -3 38 -30 28z"/>
<path d="M5043 1996 c-96 -43 -98 -214 -3 -264 41 -21 119 -10 147 22 29 34
29 43 -2 48 -16 3 -30 -1 -41 -13 -10 -11 -29 -19 -44 -19 -30 0 -70 37 -70
64 0 16 10 17 95 14 l95 -3 0 28 c0 97 -93 161 -177 123z m94 -58 c40 -37 30
-48 -42 -48 -72 0 -83 12 -45 50 26 26 58 25 87 -2z"/>
<path d="M5740 2003 c-8 -3 -23 -12 -32 -21 -16 -14 -18 -13 -18 1 0 11 -8 17
-25 17 l-25 0 0 -141 0 -140 28 3 c26 3 27 5 29 73 1 39 2 82 2 98 1 29 32 67
55 67 36 0 46 -29 46 -136 l0 -105 28 3 27 3 5 103 c4 89 8 106 25 118 28 20
57 14 72 -16 7 -15 13 -63 13 -115 l0 -91 26 1 c27 2 27 2 30 96 3 112 -10
158 -49 177 -35 17 -88 9 -112 -18 -17 -19 -18 -19 -34 0 -17 21 -66 33 -91
23z"/>
<path d="M6153 1996 c-85 -38 -93 -200 -14 -253 117 -79 245 52 187 192 -26
61 -108 90 -173 61z m102 -61 c49 -48 21 -165 -40 -165 -41 0 -67 31 -72 87
-5 45 -2 55 20 77 33 33 61 33 92 1z"/>
<path d="M6760 1992 c-82 -41 -94 -181 -20 -247 17 -15 36 -20 82 -20 53 0 62
3 84 28 13 15 24 32 24 38 0 15 -56 10 -70 -6 -29 -34 -110 1 -110 48 0 15 13
17 95 17 95 0 95 0 95 25 0 43 -27 94 -62 115 -41 25 -72 25 -118 2z m97 -54
c40 -37 30 -48 -42 -48 -72 0 -83 12 -45 50 26 26 58 25 87 -2z"/>
<path d="M7093 2000 c-12 -5 -26 -17 -32 -27 -10 -16 -10 -16 -11 5 0 17 -6
22 -25 22 l-25 0 0 -141 0 -140 28 3 27 3 0 87 c1 96 16 128 62 128 20 0 23 5
23 35 0 37 -8 41 -47 25z"/>
<path d="M7294 2000 c-12 -5 -25 -13 -29 -19 -9 -16 -25 -13 -25 4 0 9 -9 15
-25 15 l-25 0 0 -140 0 -140 30 0 30 0 0 85 c0 95 15 139 51 148 53 14 69 -19
69 -141 l0 -88 28 2 27 1 0 105 c0 114 -10 148 -52 167 -28 13 -50 13 -79 1z"/>
<path d="M7544 1993 c-44 -22 -64 -61 -64 -128 0 -94 44 -145 125 -145 80 0
125 51 125 142 0 66 -27 114 -75 134 -43 18 -71 17 -111 -3z m101 -58 c50 -49
22 -165 -40 -165 -71 0 -101 114 -45 170 27 27 56 25 85 -5z"/>
<path d="M7841 1999 c-39 -8 -57 -25 -66 -60 -9 -36 22 -69 81 -89 56 -19 74
-41 55 -64 -19 -23 -57 -20 -75 5 -11 16 -21 20 -40 15 -32 -8 -32 -17 -3 -51
39 -45 126 -46 167 -3 44 48 12 116 -64 138 -59 16 -78 37 -51 56 26 19 51 17
67 -5 10 -14 21 -18 40 -14 27 5 27 6 13 34 -9 17 -26 31 -43 35 -15 3 -31 7
-37 8 -5 1 -25 -1 -44 -5z"/>
<path d="M5286 1979 c-19 -15 -26 -30 -26 -53 0 -40 23 -63 76 -78 48 -12 64
-25 64 -48 0 -34 -61 -41 -83 -10 -11 16 -21 19 -41 14 -33 -8 -33 -19 3 -55
23 -23 38 -29 71 -29 46 0 94 21 104 45 22 58 -9 105 -84 125 -44 12 -62 30
-51 49 12 19 62 17 77 -3 8 -12 20 -15 38 -10 24 6 25 7 11 34 -17 33 -33 40
-89 40 -29 0 -52 -7 -70 -21z"/>
</g>
</svg>
