<svg xmlns="http://www.w3.org/2000/svg" viewBox="0 0 256 256" width="256" height="256">
  <path d="M170.2 85.6L170.2 85.6 170.2 85.6C169.5 84.1 168.5 82.8 167.2 81.7L128.2 42.7 128.2 42.7C126.5 41 124.3 40 121.9 40 119.5 40 117.3 41 115.6 42.7L76.6 81.7C75.3 82.8 74.3 84.1 73.6 85.6L73.6 85.6 73.6 85.6C73.1 86.8 72.8 88.1 72.8 89.5 72.8 93.5 75.9 96.6 79.9 96.6 81.3 96.6 82.6 96.3 83.8 95.8L83.8 95.8 83.8 95.8C85.3 95.1 86.6 94.1 87.7 92.8L121.9 58.6 156.1 92.8C157.2 94.1 158.5 95.1 160 95.8L160 95.8 160 95.8C161.2 96.3 162.5 96.6 163.9 96.6 167.9 96.6 171 93.5 171 89.5 171 88.1 170.7 86.8 170.2 85.6zM85.6 170.2L85.6 170.2 85.6 170.2C84.1 169.5 82.8 168.5 81.7 167.2L42.7 128.2 42.7 128.2C41 126.5 40 124.3 40 121.9 40 119.5 41 117.3 42.7 115.6L81.7 76.6C82.8 75.3 84.1 74.3 85.6 73.6L85.6 73.6 85.6 73.6C86.8 73.1 88.1 72.8 89.5 72.8 93.5 72.8 96.6 75.9 96.6 79.9 96.6 81.3 96.3 82.6 95.8 83.8L95.8 83.8 95.8 83.8C95.1 85.3 94.1 86.6 92.8 87.7L58.6 121.9 92.8 156.1C94.1 157.2 95.1 158.5 95.8 160L95.8 160 95.8 160C96.3 161.2 96.6 162.5 96.6 163.9 96.6 167.9 93.5 171 89.5 171 88.1 171 86.8 170.7 85.6 170.2zM170.2 170.2L170.2 170.2 170.2 170.2C169.5 171.7 168.5 173 167.2 174.1L128.2 213.1 128.2 213.1C126.5 214.8 124.3 215.8 121.9 215.8 119.5 215.8 117.3 214.8 115.6 213.1L76.6 174.1C75.3 173 74.3 171.7 73.6 170.2L73.6 170.2 73.6 170.2C73.1 169 72.8 167.7 72.8 166.3 72.8 162.3 75.9 159.2 79.9 159.2 81.3 159.2 82.6 159.5 83.8 160L83.8 160 83.8 160C85.3 160.7 86.6 161.7 87.7 163L121.9 197.2 156.1 163C157.2 161.7 158.5 160.7 160 160L160 160 160 160C161.2 159.5 162.5 159.2 163.9 159.2 167.9 159.2 171 162.3 171 166.3 171 167.7 170.7 169 170.2 170.2zM213.1 128.2L213.1 128.2 213.1 128.2C214.8 126.5 215.8 124.3 215.8 121.9 215.8 119.5 214.8 117.3 213.1 115.6L174.1 76.6C173 75.3 171.7 74.3 170.2 73.6L170.2 73.6 170.2 73.6C169 73.1 167.7 72.8 166.3 72.8 162.3 72.8 159.2 75.9 159.2 79.9 159.2 81.3 159.5 82.6 160 83.8L160 83.8 160 83.8C160.7 85.3 161.7 86.6 163 87.7L197.2 121.9 163 156.1C161.7 157.2 160.7 158.5 160 160L160 160 160 160C159.5 161.2 159.2 162.5 159.2 163.9 159.2 167.9 162.3 171 166.3 171 167.7 171 169 170.7 170.2 170.2L170.2 170.2 170.2 170.2C171.7 169.5 173 168.5 174.1 167.2L213.1 128.2 213.1 128.2z" fill="#4285F4"/>
</svg>
