<svg xmlns="http://www.w3.org/2000/svg" viewBox="0 0 256 302" width="256" height="302">
  <path d="M217.168 23.507C203.234 7.625 178.046.816 145.823.816h-93.52A13.393 13.393 0 0 0 39.076 12.11L.136 259.077c-.774 4.87 2.997 9.28 7.933 9.28h57.736l14.5-91.971-.45 2.88c1.033-6.501 6.593-11.296 13.177-11.296h27.436c53.898 0 96.101-21.892 108.53-85.221.367-1.873.683-3.696.94-5.476-1.556-1.33-1.556-1.33 0 0 3.322-21.167 0-35.628-11.77-48.766z" fill="#27346A"/>
  <path d="M102.397 68.84a11.737 11.737 0 0 1 5.053-1.14h73.318c8.682 0 16.78.565 24.18 1.756a101.6 101.6 0 0 1 6.177 1.182 89.928 89.928 0 0 1 8.59 2.347c3.638 1.215 7.026 2.63 10.14 4.287 3.322-21.167 0-35.628-11.77-48.766C203.234 7.625 178.046.816 145.823.816h-93.52A13.393 13.393 0 0 0 39.076 12.11L.136 259.077c-.774 4.87 2.997 9.28 7.933 9.28h57.736l14.5-91.971 22.092-107.547z" fill="#27346A"/>
  <path d="M228.897 82.749c-12.43 63.33-54.632 85.221-108.53 85.221H93.025c-6.584 0-12.145 4.795-13.177 11.296L61.817 293.621c-.646 4.07 2.471 7.771 6.584 7.771h46.315c5.456 0 10.096-3.96 10.852-9.355l.446-2.324 8.559-54.254.55-3.01c.756-5.395 5.396-9.355 10.852-9.355h6.843c44.243 0 78.863-17.965 89.003-70.006 4.082-21.275 1.996-39.071-8.85-51.634-3.3-3.848-7.476-7.044-12.422-9.705z" fill="#2790C3"/>
  <path d="M216.952 72.128a89.928 89.928 0 0 0-5.818-1.49c-2.037-.513-4.169-.942-6.375-1.303-7.476-1.208-15.616-1.786-24.392-1.786h-73.318a14.814 14.814 0 0 0-6.26 1.382 13.635 13.635 0 0 0-7.153 9.687l-17.152 108.766 -.543 3.48c1.033-6.501 6.593-11.296 13.177-11.296h27.437c53.898 0 96.1-21.892 108.53-85.221.367-1.873.683-3.696.94-5.476-3.114-1.657-6.502-3.071-10.073-4.303-3.35-1.137-6.8-2.118-10-2.95z" fill="#1F264F"/>
</svg>
